<mxfile host="app.diagrams.net" modified="2024-01-11T06:16:38.929Z" agent="Mozilla/5.0 (Windows NT 10.0; Win64; x64) AppleWebKit/537.36 (KHTML, like Gecko) Chrome/120.0.0.0 Safari/537.36 Avast/120.0.0.0" etag="oLJo1cuEFn1W9A6NuoAi" version="22.1.18" type="github">
  <diagram id="R2lEEEUBdFMjLlhIrx00" name="Page-1">
    <mxGraphModel dx="794" dy="432" grid="1" gridSize="10" guides="1" tooltips="1" connect="1" arrows="1" fold="1" page="1" pageScale="1" pageWidth="850" pageHeight="1100" math="0" shadow="0" extFonts="Permanent Marker^https://fonts.googleapis.com/css?family=Permanent+Marker">
      <root>
        <mxCell id="0" />
        <mxCell id="1" parent="0" />
        <mxCell id="lNK32D5DYRePoqm71RXj-21" value="ListAdd" style="rounded=0;whiteSpace=wrap;html=1;" vertex="1" parent="1">
          <mxGeometry x="330" y="370" width="120" height="60" as="geometry" />
        </mxCell>
        <mxCell id="lNK32D5DYRePoqm71RXj-27" style="edgeStyle=orthogonalEdgeStyle;rounded=0;orthogonalLoop=1;jettySize=auto;html=1;exitX=0.5;exitY=1;exitDx=0;exitDy=0;entryX=0.5;entryY=0;entryDx=0;entryDy=0;" edge="1" parent="1" source="lNK32D5DYRePoqm71RXj-24" target="lNK32D5DYRePoqm71RXj-25">
          <mxGeometry relative="1" as="geometry" />
        </mxCell>
        <mxCell id="lNK32D5DYRePoqm71RXj-24" value="APP.vue" style="rounded=0;whiteSpace=wrap;html=1;" vertex="1" parent="1">
          <mxGeometry x="330" y="190" width="120" height="70" as="geometry" />
        </mxCell>
        <mxCell id="lNK32D5DYRePoqm71RXj-39" style="edgeStyle=orthogonalEdgeStyle;curved=1;rounded=0;orthogonalLoop=1;jettySize=auto;html=1;exitX=0.75;exitY=0;exitDx=0;exitDy=0;fillColor=#f8cecc;strokeColor=#b85450;" edge="1" parent="1" source="lNK32D5DYRePoqm71RXj-25">
          <mxGeometry relative="1" as="geometry">
            <mxPoint x="370" y="260" as="targetPoint" />
            <Array as="points">
              <mxPoint x="180" y="330" />
              <mxPoint x="371" y="330" />
            </Array>
          </mxGeometry>
        </mxCell>
        <mxCell id="lNK32D5DYRePoqm71RXj-40" value="삭제.수정 상태변경" style="edgeLabel;html=1;align=center;verticalAlign=middle;resizable=0;points=[];" vertex="1" connectable="0" parent="lNK32D5DYRePoqm71RXj-39">
          <mxGeometry x="0.0011" y="1" relative="1" as="geometry">
            <mxPoint as="offset" />
          </mxGeometry>
        </mxCell>
        <mxCell id="lNK32D5DYRePoqm71RXj-46" style="edgeStyle=orthogonalEdgeStyle;curved=1;rounded=0;orthogonalLoop=1;jettySize=auto;html=1;exitX=0.25;exitY=0;exitDx=0;exitDy=0;entryX=0;entryY=0.5;entryDx=0;entryDy=0;fillColor=#f8cecc;strokeColor=#b85450;" edge="1" parent="1" source="lNK32D5DYRePoqm71RXj-25" target="lNK32D5DYRePoqm71RXj-24">
          <mxGeometry relative="1" as="geometry">
            <Array as="points">
              <mxPoint x="90" y="370" />
              <mxPoint x="90" y="225" />
            </Array>
          </mxGeometry>
        </mxCell>
        <mxCell id="lNK32D5DYRePoqm71RXj-47" value="수정메모 전달" style="edgeLabel;html=1;align=center;verticalAlign=middle;resizable=0;points=[];" vertex="1" connectable="0" parent="lNK32D5DYRePoqm71RXj-46">
          <mxGeometry x="0.1523" y="-14" relative="1" as="geometry">
            <mxPoint as="offset" />
          </mxGeometry>
        </mxCell>
        <mxCell id="lNK32D5DYRePoqm71RXj-25" value="doList" style="rounded=0;whiteSpace=wrap;html=1;" vertex="1" parent="1">
          <mxGeometry x="90" y="370" width="120" height="60" as="geometry" />
        </mxCell>
        <mxCell id="lNK32D5DYRePoqm71RXj-43" style="edgeStyle=orthogonalEdgeStyle;curved=1;rounded=0;orthogonalLoop=1;jettySize=auto;html=1;exitX=0.75;exitY=0;exitDx=0;exitDy=0;fillColor=#f8cecc;strokeColor=#b85450;" edge="1" parent="1" source="lNK32D5DYRePoqm71RXj-26">
          <mxGeometry relative="1" as="geometry">
            <mxPoint x="450" y="230" as="targetPoint" />
            <Array as="points">
              <mxPoint x="750" y="380" />
              <mxPoint x="750" y="230" />
            </Array>
          </mxGeometry>
        </mxCell>
        <mxCell id="lNK32D5DYRePoqm71RXj-44" value="수정완료 메모전달" style="edgeLabel;html=1;align=center;verticalAlign=middle;resizable=0;points=[];" vertex="1" connectable="0" parent="lNK32D5DYRePoqm71RXj-43">
          <mxGeometry x="0.0309" y="39" relative="1" as="geometry">
            <mxPoint as="offset" />
          </mxGeometry>
        </mxCell>
        <mxCell id="lNK32D5DYRePoqm71RXj-26" value="listChage" style="rounded=0;whiteSpace=wrap;html=1;" vertex="1" parent="1">
          <mxGeometry x="620" y="380" width="120" height="60" as="geometry" />
        </mxCell>
        <mxCell id="lNK32D5DYRePoqm71RXj-29" style="edgeStyle=orthogonalEdgeStyle;rounded=0;orthogonalLoop=1;jettySize=auto;html=1;entryX=0.5;entryY=0;entryDx=0;entryDy=0;" edge="1" parent="1" target="lNK32D5DYRePoqm71RXj-26">
          <mxGeometry relative="1" as="geometry">
            <mxPoint x="390" y="260" as="sourcePoint" />
            <mxPoint x="170" y="390" as="targetPoint" />
            <Array as="points">
              <mxPoint x="390" y="310" />
              <mxPoint x="680" y="310" />
            </Array>
          </mxGeometry>
        </mxCell>
        <mxCell id="lNK32D5DYRePoqm71RXj-30" value="" style="endArrow=classic;html=1;rounded=0;entryX=0.5;entryY=0;entryDx=0;entryDy=0;" edge="1" parent="1" target="lNK32D5DYRePoqm71RXj-21">
          <mxGeometry width="50" height="50" relative="1" as="geometry">
            <mxPoint x="390" y="270" as="sourcePoint" />
            <mxPoint x="450" y="360" as="targetPoint" />
          </mxGeometry>
        </mxCell>
        <mxCell id="lNK32D5DYRePoqm71RXj-33" style="edgeStyle=orthogonalEdgeStyle;curved=1;rounded=0;orthogonalLoop=1;jettySize=auto;html=1;exitX=0.25;exitY=1;exitDx=0;exitDy=0;entryX=0.189;entryY=-0.056;entryDx=0;entryDy=0;entryPerimeter=0;fillColor=#f8cecc;strokeColor=#b85450;" edge="1" parent="1" source="lNK32D5DYRePoqm71RXj-24" target="lNK32D5DYRePoqm71RXj-25">
          <mxGeometry relative="1" as="geometry">
            <Array as="points">
              <mxPoint x="360" y="280" />
              <mxPoint x="113" y="280" />
            </Array>
          </mxGeometry>
        </mxCell>
        <mxCell id="lNK32D5DYRePoqm71RXj-34" value="할일목록전달,추가" style="edgeLabel;html=1;align=center;verticalAlign=middle;resizable=0;points=[];" vertex="1" connectable="0" parent="lNK32D5DYRePoqm71RXj-33">
          <mxGeometry x="-0.1053" relative="1" as="geometry">
            <mxPoint as="offset" />
          </mxGeometry>
        </mxCell>
        <mxCell id="lNK32D5DYRePoqm71RXj-38" value="할일목록전달,추가" style="edgeStyle=orthogonalEdgeStyle;curved=1;rounded=0;orthogonalLoop=1;jettySize=auto;html=1;exitX=0.75;exitY=0;exitDx=0;exitDy=0;entryX=0.689;entryY=1.038;entryDx=0;entryDy=0;entryPerimeter=0;fillColor=#f8cecc;strokeColor=#b85450;" edge="1" parent="1" source="lNK32D5DYRePoqm71RXj-21" target="lNK32D5DYRePoqm71RXj-24">
          <mxGeometry x="-0.178" y="-10" relative="1" as="geometry">
            <Array as="points">
              <mxPoint x="460" y="370" />
              <mxPoint x="460" y="300" />
              <mxPoint x="413" y="300" />
            </Array>
            <mxPoint as="offset" />
          </mxGeometry>
        </mxCell>
        <mxCell id="lNK32D5DYRePoqm71RXj-41" style="edgeStyle=orthogonalEdgeStyle;curved=1;rounded=0;orthogonalLoop=1;jettySize=auto;html=1;exitX=1;exitY=0.75;exitDx=0;exitDy=0;entryX=0.361;entryY=-0.033;entryDx=0;entryDy=0;entryPerimeter=0;fillColor=#f8cecc;strokeColor=#b85450;" edge="1" parent="1" source="lNK32D5DYRePoqm71RXj-24" target="lNK32D5DYRePoqm71RXj-26">
          <mxGeometry relative="1" as="geometry" />
        </mxCell>
        <mxCell id="lNK32D5DYRePoqm71RXj-42" value="수정할 메모전달" style="edgeLabel;html=1;align=center;verticalAlign=middle;resizable=0;points=[];" vertex="1" connectable="0" parent="lNK32D5DYRePoqm71RXj-41">
          <mxGeometry x="-0.2336" y="-20" relative="1" as="geometry">
            <mxPoint as="offset" />
          </mxGeometry>
        </mxCell>
      </root>
    </mxGraphModel>
  </diagram>
</mxfile>
